<svg width="482" height="241" viewBox="0 0 482 241" fill="none" xmlns="http://www.w3.org/2000/svg">
<path d="M223.847 217.414H259.869C263.421 217.414 266.301 220.294 266.301 223.847V240.57H217.414V223.847C217.414 220.294 220.295 217.414 223.847 217.414Z" fill="#284E7F" stroke="#125EC0" stroke-width="0.857651"/>
<mask id="path-2-inside-1_145_21932" fill="white">
<path d="M144.943 179.249C144.943 160.303 160.302 144.943 179.249 144.943H302.751C321.698 144.943 337.057 160.303 337.057 179.249V241H144.943V179.249Z"/>
</mask>
<path d="M119.214 179.249C119.214 146.093 146.092 119.214 179.249 119.214H302.751C335.908 119.214 362.786 146.093 362.786 179.249H311.327C311.327 174.513 307.488 170.673 302.751 170.673H179.249C174.512 170.673 170.673 174.513 170.673 179.249H119.214ZM337.057 241H144.943H337.057ZM119.214 241V179.249C119.214 146.093 146.092 119.214 179.249 119.214V170.673C174.512 170.673 170.673 174.513 170.673 179.249V241H119.214ZM302.751 119.214C335.908 119.214 362.786 146.093 362.786 179.249V241H311.327V179.249C311.327 174.513 307.488 170.673 302.751 170.673V119.214Z" fill="#284E7F" mask="url(#path-2-inside-1_145_21932)"/>
<mask id="path-4-inside-2_145_21932" fill="white">
<path d="M72.9003 127.79C72.9003 97.4753 97.4753 72.9004 127.79 72.9004H354.21C384.525 72.9004 409.1 97.4753 409.1 127.79V241H72.9003V127.79Z"/>
</mask>
<path d="M47.1708 127.79C47.1708 83.2653 83.2652 47.1709 127.79 47.1709H354.21C398.735 47.1709 434.829 83.2653 434.829 127.79H383.37C383.37 111.685 370.315 98.6299 354.21 98.6299H127.79C111.685 98.6299 98.6299 111.685 98.6299 127.79H47.1708ZM409.1 241H72.9003H409.1ZM47.1708 241V127.79C47.1708 83.2653 83.2652 47.1709 127.79 47.1709V98.6299C111.685 98.6299 98.6299 111.685 98.6299 127.79V241H47.1708ZM354.21 47.1709C398.735 47.1709 434.829 83.2653 434.829 127.79V241H383.37V127.79C383.37 111.685 370.315 98.6299 354.21 98.6299V47.1709Z" fill="#284E7F" mask="url(#path-4-inside-2_145_21932)"/>
<mask id="path-6-inside-3_145_21932" fill="white">
<path d="M0 78.0463C0 34.9425 34.9425 0 78.0463 0H403.954C447.057 0 482 34.9425 482 78.0463V241H0V78.0463Z"/>
</mask>
<path d="M-25.7295 78.0463C-25.7295 20.7325 20.7325 -25.7295 78.0463 -25.7295H403.954C461.268 -25.7295 507.73 20.7325 507.73 78.0463H456.27C456.27 49.1525 432.847 25.7295 403.954 25.7295H78.0463C49.1525 25.7295 25.7295 49.1525 25.7295 78.0463H-25.7295ZM482 241H0H482ZM-25.7295 241V78.0463C-25.7295 20.7325 20.7325 -25.7295 78.0463 -25.7295V25.7295C49.1525 25.7295 25.7295 49.1525 25.7295 78.0463V241H-25.7295ZM403.954 -25.7295C461.268 -25.7295 507.73 20.7325 507.73 78.0463V241H456.27V78.0463C456.27 49.1525 432.847 25.7295 403.954 25.7295V-25.7295Z" fill="#284E7F" mask="url(#path-6-inside-3_145_21932)"/>
</svg>
