<svg width="252" height="255" viewBox="0 0 252 255" fill="none" xmlns="http://www.w3.org/2000/svg">
<path d="M166.692 36.8116C166.443 36.761 166.199 36.716 165.956 36.671C166.408 36.7273 166.692 36.8116 166.692 36.8116ZM209.665 58.3184C202.293 52.8841 199.237 50.9545 198.97 40.0408C198.564 23.6589 171.547 20.7392 165.683 34.7358C164.57 34.567 163.479 34.4264 163.05 34.3701C148.376 32.4574 145.795 47.1797 147.726 52.8897C149.82 59.0666 154.263 68.6133 149.443 73.952C148.741 74.7284 148.138 75.5047 147.616 76.2754C144.652 80.6578 147.883 86.4747 153.283 86.4747H176.576V82.0023C176.576 82.0023 169.268 83.2625 165.179 80.2302C161.588 77.8675 159.947 72.5794 159.199 66.2618L158.885 67.0325C158.885 67.0325 154.477 66.8862 154.257 65.2886C153.915 62.8077 158.363 55.5281 158.363 55.5281L158.601 55.5506C158.561 52.6928 158.578 49.835 158.578 47.1122C158.578 38.0212 162.685 36.6541 165.057 36.6147C165.057 36.6147 165.063 36.6147 165.068 36.6147C165.08 36.6147 165.092 36.6147 165.103 36.6147C165.84 36.6204 174.923 37.0423 174.923 52.8841V64.0791C174.923 66.9256 177.301 69.2378 180.241 69.2378C183.269 69.2378 185.722 71.6174 185.722 74.554V86.4691H213.424C213.418 86.4747 224.484 69.2434 209.665 58.3184ZM42.7506 14.551H101.906V9.01541H42.7506V14.551ZM39.7056 89.0175C36.794 89.0175 34.4333 91.3071 34.4333 94.1312C34.4333 96.9552 36.794 99.2449 39.7056 99.2449C42.6172 99.2449 44.9779 96.9552 44.9779 94.1312C44.9779 91.3071 42.6172 89.0175 39.7056 89.0175ZM74.0826 215.757C76.9827 223.605 84.7142 229.219 93.7971 229.219C105.362 229.219 114.735 219.358 114.735 208.14C111.162 208.067 107.578 208.759 104.585 208.77C79.5985 208.894 74.1348 215.695 74.0826 215.757ZM151.485 227.25C137.211 227.25 125.634 238.474 125.634 252.324H177.336C177.336 238.474 165.764 227.25 151.485 227.25ZM224.484 202.194C215.628 202.605 208.575 209.704 208.575 218.396C208.575 227.093 215.628 234.187 224.484 234.597V202.194ZM194.968 152.261V171.14L250.26 170.505C250.26 170.505 250.445 103.301 197.236 90.9302V105.315L176.581 114.423V90.9302C176.581 90.9302 142.32 92.8823 137.767 122.889L168.403 112.746L170.375 118.108L179.441 113.033L202.119 150.984L194.968 152.261ZM189.185 195.679H224.484V170.415L213.644 170.505L218.986 179.478L189.185 195.679ZM146.903 172.969L137.216 174.724L159.634 212.438L167.899 208.298L146.903 172.969ZM138.753 159.265L128.511 142.039L120.245 146.179L129.357 161.504L138.753 159.265Z" fill="url(#paint0_linear_74_31728)"/>
<path d="M113.894 116.397C113.413 116.397 113.024 116.02 113.024 115.554C113.024 104.882 109.829 96.6683 103.524 91.1327C97.7006 86.019 89.1455 83.3187 78.7807 83.3187H78.1949C69.9182 83.3187 61.3573 83.3243 54.5828 80.4159C46.6947 77.0292 42.8667 70.2841 42.8667 59.7923C42.8667 59.3254 43.2553 58.9485 43.7367 58.9485C44.2181 58.9485 44.6067 59.3254 44.6067 59.7923C44.6067 69.5472 48.0984 75.786 55.2904 78.8745C61.7285 81.6366 70.098 81.631 78.2007 81.6366H78.7865C101.656 81.6366 114.77 94.0018 114.77 115.565C114.764 116.02 114.37 116.397 113.894 116.397Z" fill="#6A2EA0"/>
<path d="M103.698 60.7994H78.8098C78.3284 60.7994 77.9398 60.4224 77.9398 59.9555C77.9398 59.4886 78.3284 59.1117 78.8098 59.1117H103.698C108.901 59.1117 113.135 55.005 113.135 49.9588V11.4513C113.135 6.40516 108.901 2.29845 103.698 2.29845H41.0919C35.9762 2.29845 31.8118 6.33765 31.8118 11.2995V43.253C31.8118 43.72 31.4232 44.0969 30.9418 44.0969C30.4604 44.0969 30.0718 43.72 30.0718 43.253V11.2995C30.0718 5.40942 35.0134 0.610764 41.0919 0.610764H103.704C109.869 0.610764 114.88 5.47693 114.88 11.4513V49.9531C114.875 55.9388 109.863 60.7994 103.698 60.7994Z" fill="#6A2EA0"/>
<path d="M96.5345 45.672C92.1845 45.672 88.6406 42.2348 88.6406 38.0155C88.6406 33.7963 92.1787 30.3591 96.5345 30.3591C100.89 30.3591 104.428 33.7963 104.428 38.0155C104.428 42.2348 100.89 45.672 96.5345 45.672ZM96.5345 32.0467C93.1415 32.0467 90.3806 34.7245 90.3806 38.0155C90.3806 41.3065 93.1415 43.9843 96.5345 43.9843C99.9276 43.9843 102.688 41.3065 102.688 38.0155C102.688 34.7245 99.9276 32.0467 96.5345 32.0467Z" fill="#6A2EA0"/>
<path d="M73.1659 45.672C68.8158 45.672 65.272 42.2348 65.272 38.0155C65.272 33.7963 68.81 30.3591 73.1659 30.3591C77.5217 30.3591 81.0598 33.7963 81.0598 38.0155C81.0598 42.2348 77.5159 45.672 73.1659 45.672ZM73.1659 32.0467C69.7728 32.0467 67.012 34.7245 67.012 38.0155C67.012 41.3065 69.7728 43.9843 73.1659 43.9843C76.5589 43.9843 79.3197 41.3065 79.3197 38.0155C79.3197 34.7245 76.5589 32.0467 73.1659 32.0467Z" fill="#6A2EA0"/>
<path d="M102.805 45.3064C102.578 45.3064 102.352 45.222 102.184 45.0532L89.2787 32.2437C88.9423 31.9117 88.9481 31.3773 89.2904 31.051C89.6326 30.7247 90.1836 30.7304 90.52 31.0623L103.425 43.8718C103.762 44.2037 103.756 44.7382 103.414 45.0645C103.245 45.2276 103.025 45.3064 102.805 45.3064Z" fill="#6A2EA0"/>
<path d="M79.3665 45.3064C79.1403 45.3064 78.9141 45.222 78.7459 45.0532L65.8408 32.2437C65.5044 31.9117 65.5102 31.3773 65.8524 31.051C66.1946 30.7247 66.7456 30.7304 67.082 31.0623L79.9871 43.8718C80.3235 44.2037 80.3177 44.7382 79.9755 45.0645C79.8073 45.2276 79.5869 45.3064 79.3665 45.3064Z" fill="#6A2EA0"/>
<path d="M55.9283 45.3064C55.7021 45.3064 55.4759 45.222 55.3077 45.0532L42.4025 32.2437C42.0661 31.9117 42.0719 31.3773 42.4141 31.051C42.7563 30.7247 43.3073 30.7304 43.6437 31.0623L56.5489 43.8718C56.8853 44.2037 56.8795 44.7382 56.5373 45.0645C56.3691 45.2276 56.1487 45.3064 55.9283 45.3064Z" fill="#6A2EA0"/>
<path d="M43.0231 45.3064C42.8027 45.3064 42.5823 45.2276 42.4141 45.0645C42.0719 44.7382 42.0661 44.2037 42.4025 43.8718L55.3077 31.0623C55.6441 30.7304 56.1951 30.7247 56.5373 31.051C56.8795 31.3773 56.8853 31.9117 56.5489 32.2437L43.6437 45.0532C43.4755 45.222 43.2493 45.3064 43.0231 45.3064Z" fill="#6A2EA0"/>
<path d="M171.68 82.8349C168.705 82.8349 166.205 82.0811 164.186 80.5847C156.82 75.0997 157.267 60.9737 157.667 48.513C157.731 46.4259 157.795 44.4569 157.818 42.5723C157.824 42.381 158.033 38.3643 161.808 36.6485C162.243 36.4516 162.76 36.6316 162.963 37.0536C163.166 37.4755 162.98 37.9762 162.545 38.1787C159.744 39.4501 159.564 42.4935 159.558 42.6229C159.535 44.4963 159.471 46.4765 159.407 48.5692C159.024 60.6306 158.595 74.2952 165.248 79.2514C168.246 81.4848 172.452 81.7717 178.095 80.1234C179.272 79.7352 180.473 79.3245 181.633 78.9082C182.085 78.7451 182.584 78.9701 182.752 79.4089C182.921 79.8477 182.689 80.3315 182.236 80.4947C181.065 80.911 179.847 81.3329 178.629 81.7323C176.088 82.4636 173.768 82.8349 171.68 82.8349Z" fill="#6A2EA0"/>
<path d="M176.576 100.077C176.094 100.077 175.706 99.7006 175.706 99.2336V82.0024C175.706 81.5354 176.094 81.1585 176.576 81.1585C177.057 81.1585 177.446 81.5354 177.446 82.0024V99.2336C177.446 99.7006 177.057 100.077 176.576 100.077Z" fill="#6A2EA0"/>
<path d="M190.571 95.7851C190.09 95.7851 189.701 95.4082 189.701 94.9412V83.2624C189.701 82.7955 190.09 82.4186 190.571 82.4186C191.053 82.4186 191.441 82.7955 191.441 83.2624V94.9412C191.441 95.4082 191.053 95.7851 190.571 95.7851Z" fill="#6A2EA0"/>
<path d="M176.576 108.797C176.228 108.797 175.897 108.595 175.764 108.257C175.59 107.824 175.81 107.334 176.262 107.166L190.258 101.894C190.705 101.726 191.209 101.939 191.383 102.378C191.557 102.811 191.337 103.301 190.884 103.47L176.889 108.741C176.79 108.78 176.68 108.797 176.576 108.797Z" fill="#6A2EA0"/>
<path d="M137.762 123.739C137.692 123.739 137.628 123.733 137.559 123.716C137.089 123.609 136.805 123.154 136.915 122.698C137.715 119.469 138.649 116.369 139.542 113.978C147.616 92.3985 176.21 89.8051 176.5 89.7826C176.976 89.7432 177.399 90.0864 177.44 90.5533C177.481 91.0202 177.127 91.4253 176.645 91.4646C176.367 91.4871 148.869 94.0018 141.178 114.558C140.302 116.892 139.391 119.925 138.603 123.098C138.51 123.48 138.156 123.739 137.762 123.739Z" fill="#6A2EA0"/>
<path d="M212.211 151.687C211.73 151.687 211.341 151.31 211.341 150.843V131.789C211.341 131.322 211.73 130.945 212.211 130.945C212.693 130.945 213.081 131.322 213.081 131.789V150.843C213.081 151.31 212.693 151.687 212.211 151.687Z" fill="#6A2EA0"/>
<path d="M160.475 158.978C160.388 158.978 160.301 158.967 160.219 158.938C144.194 154.168 136.509 149.487 136.19 149.29C135.784 149.043 135.662 148.52 135.923 148.126C136.178 147.732 136.717 147.614 137.123 147.867C137.199 147.912 144.884 152.587 160.509 157.256C163.74 156.542 199.718 148.705 222.268 150.162C222.75 150.191 223.109 150.596 223.08 151.063C223.046 151.529 222.628 151.884 222.152 151.85C198.912 150.354 161.055 158.871 160.678 158.955C160.608 158.972 160.544 158.978 160.475 158.978Z" fill="#6A2EA0"/>
<path d="M122.148 164.367C121.782 164.367 121.446 164.148 121.324 163.793C121.173 163.355 121.417 162.871 121.869 162.724C121.968 162.691 131.799 159.49 142.593 157.313C143.063 157.217 143.527 157.509 143.619 157.965C143.718 158.421 143.416 158.871 142.947 158.961C132.263 161.116 122.525 164.288 122.426 164.322C122.339 164.35 122.24 164.367 122.148 164.367Z" fill="#6A2EA0"/>
<path d="M130.738 176.744C130.326 176.744 129.961 176.462 129.885 176.057C129.798 175.602 130.106 175.157 130.581 175.073L160.318 169.683C160.37 169.672 160.423 169.666 160.481 169.666H249.373C249.286 166.499 248.706 154.815 244.976 141.505C242.424 132.397 238.915 124.324 234.548 117.506C229.113 109.017 222.321 102.457 214.363 98.0129C200.49 90.2664 190.792 91.4478 190.693 91.459C190.218 91.5209 189.777 91.2003 189.713 90.739C189.649 90.2777 189.98 89.8501 190.45 89.7882C190.867 89.732 200.785 88.4831 215.228 96.5502C233.805 106.924 242.575 126.507 246.658 141.105C251.072 156.863 251.118 170.381 251.118 170.516C251.118 170.983 250.73 171.36 250.248 171.36H160.556L130.9 176.738C130.848 176.738 130.796 176.744 130.738 176.744Z" fill="#6A2EA0"/>
<path d="M224.484 254.208C224.003 254.208 223.614 253.831 223.614 253.365V171.14C223.614 170.673 224.003 170.297 224.484 170.297C224.966 170.297 225.354 170.673 225.354 171.14V253.365C225.354 253.831 224.966 254.208 224.484 254.208Z" fill="#6A2EA0"/>
<path d="M55.9923 254.208C55.534 254.208 55.1512 253.86 55.1222 253.41C55.0758 252.588 54.1652 233.124 67.0066 219.988C74.4191 212.41 84.894 208.568 98.1414 208.568C109.324 208.568 129.711 206.526 140.581 192.827C140.876 192.456 141.422 192.388 141.799 192.675C142.181 192.962 142.251 193.491 141.955 193.857C130.628 208.123 109.643 210.255 98.1356 210.255C85.387 210.255 75.3413 213.918 68.271 221.141C55.9458 233.737 56.8391 253.123 56.8507 253.32C56.8739 253.786 56.5085 254.18 56.027 254.208C56.0212 254.208 56.0039 254.208 55.9923 254.208Z" fill="#6A2EA0"/>
<path d="M142.547 196.956C142.419 196.956 142.291 196.928 142.175 196.878C141.967 196.782 141.804 196.608 141.729 196.399L134.021 175.444C133.858 175.005 134.096 174.521 134.548 174.364C135.001 174.206 135.5 174.437 135.662 174.876L143.08 195.038L191.575 178.251L188.93 171.056C188.767 170.617 189.005 170.133 189.458 169.976C189.91 169.818 190.409 170.049 190.571 170.488L193.512 178.476C193.587 178.684 193.576 178.921 193.477 179.123C193.379 179.326 193.199 179.483 192.984 179.556L142.848 196.911C142.744 196.94 142.645 196.956 142.547 196.956Z" fill="#6A2EA0"/>
<path d="M129.566 161.672C129.206 161.672 128.876 161.459 128.748 161.11L117.444 130.383C117.282 129.944 117.519 129.46 117.972 129.303L168.108 111.947C168.322 111.874 168.566 111.886 168.775 111.981C168.983 112.077 169.146 112.251 169.221 112.459L184.33 153.532C184.493 153.971 184.255 154.455 183.803 154.612C183.35 154.77 182.851 154.539 182.689 154.1L167.87 113.821L119.375 130.608L130.39 160.536C130.552 160.975 130.314 161.459 129.862 161.616C129.763 161.656 129.665 161.672 129.566 161.672Z" fill="#6A2EA0"/>
<path d="M39.723 116.471H0.914689C0.433283 116.471 0.0446777 116.094 0.0446777 115.627V94.1368C0.0446777 93.6699 0.433283 93.293 0.914689 93.293H39.723C40.2044 93.293 40.593 93.6699 40.593 94.1368V115.627C40.593 116.094 40.2044 116.471 39.723 116.471ZM1.7847 114.783H38.853V94.9806H1.7847V114.783Z" fill="#6A2EA0"/>
<path d="M20.3216 108.578C20.1418 108.578 19.962 108.527 19.8112 108.42L0.404196 94.8176C0.0155907 94.5419 -0.0714104 94.0187 0.206993 93.6418C0.491197 93.2649 1.0306 93.1805 1.41921 93.4505L20.3158 106.693L39.2125 93.4505C39.6011 93.1749 40.1463 93.2649 40.4247 93.6418C40.7089 94.0187 40.6161 94.5475 40.2275 94.8176L20.8204 108.42C20.6754 108.527 20.4956 108.578 20.3216 108.578Z" fill="#6A2EA0"/>
<path d="M0.914671 116.47C0.688468 116.47 0.468066 116.386 0.294064 116.223C-0.0423404 115.891 -0.0423414 115.357 0.299863 115.03L13.234 102.609C13.5762 102.283 14.1272 102.283 14.4636 102.615C14.8 102.946 14.8 103.481 14.4578 103.807L1.52368 116.229C1.35548 116.386 1.13507 116.47 0.914671 116.47Z" fill="#6A2EA0"/>
<path d="M39.7231 116.47C39.5027 116.47 39.2823 116.392 39.1083 116.229L26.1741 103.807C25.8319 103.481 25.8319 102.946 26.1683 102.615C26.5047 102.283 27.0557 102.283 27.3979 102.609L40.3321 115.03C40.6743 115.357 40.6743 115.891 40.3379 116.223C40.1697 116.386 39.9493 116.47 39.7231 116.47Z" fill="#6A2EA0"/>
<path d="M125.633 174.178C125.222 174.178 124.856 173.897 124.781 173.492C124.694 173.036 125.001 172.592 125.471 172.507C125.581 172.485 136.404 170.499 141.479 169.678C141.949 169.605 142.401 169.914 142.483 170.37C142.564 170.831 142.239 171.264 141.769 171.343C136.717 172.159 125.906 174.144 125.802 174.167C125.744 174.173 125.691 174.178 125.633 174.178Z" fill="#6A2EA0"/>
<path d="M122.792 170.769C122.38 170.769 122.02 170.488 121.939 170.083C121.846 169.627 122.16 169.183 122.629 169.093L139.653 165.925C140.128 165.835 140.581 166.139 140.673 166.595C140.766 167.051 140.453 167.495 139.983 167.585L122.96 170.752C122.902 170.763 122.85 170.769 122.792 170.769Z" fill="#6A2EA0"/>
<path d="M122.148 167.602C121.759 167.602 121.4 167.343 121.301 166.961C121.185 166.51 121.469 166.049 121.939 165.937L138.353 161.993C138.823 161.881 139.293 162.156 139.409 162.612C139.525 163.068 139.241 163.523 138.771 163.636L122.357 167.579C122.287 167.596 122.217 167.602 122.148 167.602Z" fill="#6A2EA0"/>
<path d="M158.885 67.8764C158.874 67.8764 158.868 67.8764 158.862 67.8764C157.58 67.8426 153.393 67.5445 153.393 65.2886C153.393 61.7276 157.458 55.3537 157.627 55.0837C157.882 54.6899 158.415 54.5661 158.827 54.8137C159.233 55.0612 159.361 55.5788 159.106 55.9782C157.998 57.7052 155.133 62.7402 155.133 65.2942C155.278 65.6542 156.994 66.1381 158.914 66.1943C159.396 66.2056 159.773 66.5993 159.755 67.0607C159.744 67.5163 159.355 67.8764 158.885 67.8764Z" fill="#6A2EA0"/>
<path d="M129.27 162.173C128.969 162.173 128.673 162.016 128.516 161.751L119.497 146.596C119.381 146.404 119.352 146.174 119.41 145.954C119.468 145.735 119.613 145.555 119.816 145.443L179 112.296C179.197 112.184 179.435 112.156 179.661 112.212C179.882 112.268 180.073 112.409 180.189 112.606L203.361 151.535C203.511 151.788 203.517 152.098 203.378 152.351C203.239 152.61 202.972 152.778 202.67 152.795C185.612 153.988 171.495 156.052 160.707 158.938C160.539 158.983 160.359 158.978 160.196 158.922C159.529 158.702 144.252 153.622 136.961 149.707C136.805 150.202 136.892 150.787 137.014 151.254C137.611 153.487 140.169 156.457 143.034 157.318C143.417 157.431 143.666 157.78 143.643 158.168C143.62 158.556 143.336 158.876 142.947 158.95C142.866 158.967 134.989 160.508 129.526 162.128C129.439 162.162 129.352 162.173 129.27 162.173ZM121.435 146.489L129.676 160.334C133.191 159.332 137.466 158.381 140.111 157.819C137.698 156.272 135.883 153.768 135.326 151.693C134.92 150.179 135.169 148.869 136.028 148.002C136.306 147.721 136.753 147.659 137.095 147.856C143.423 151.468 158.375 156.542 160.504 157.251C171.072 154.449 184.742 152.424 201.157 151.22L179.11 114.187L121.435 146.489Z" fill="#6A2EA0"/>
<path d="M159.802 213.473C159.727 213.473 159.651 213.462 159.576 213.445C159.356 213.389 159.164 213.248 159.048 213.051L136.741 175.579C136.596 175.337 136.584 175.05 136.706 174.797C136.828 174.549 137.066 174.369 137.35 174.324C146.224 172.862 160.139 169.717 160.278 169.689C160.342 169.672 160.411 169.666 160.475 169.666H213.644C213.957 169.666 214.242 169.83 214.398 170.088L219.74 179.067C219.978 179.472 219.839 179.984 219.421 180.22L160.237 213.366C160.104 213.434 159.953 213.473 159.802 213.473ZM138.87 175.782L160.115 211.476L217.797 179.174L213.14 171.349H160.574C159.367 171.624 147.378 174.308 138.87 175.782Z" fill="#6A2EA0"/>
<defs>
<linearGradient id="paint0_linear_74_31728" x1="29.0184" y1="22.337" x2="229.85" y2="229.396" gradientUnits="userSpaceOnUse">
<stop stop-color="#4C90FF"/>
<stop offset="0.3425" stop-color="#8E78D2"/>
<stop offset="0.7932" stop-color="#DF599B"/>
<stop offset="1" stop-color="#FF4C84"/>
</linearGradient>
</defs>
</svg>
